# xmcd CD database file
#
# Track frame offsets:
#	150
#	17513
#	29792
#	40126
#	57077
#	68750
#	81373
#	93535
#	104507
#	118007
#	132492
#	145002
#	155737
#	167560
#	180786
#
# Disc length: 2639 seconds
#
# Revision: 0
# Processed by: cddbd v1.5.1PL2 Copyright (c) Steve Scherf et al.
# Submitted via: CDex 1.70beta2
#
DISCID=c80a4d0f
DTITLE=Catherine Russell - Cat
DYEAR=1900
DGENRE=Blues
TTITLE0=Sad Lover Blues
TTITLE1=Can't We Be Friends
TTITLE2=The Late, Late Show
TTITLE3=Where Can I Go Without You
TTITLE4=Put Me Down Easy
TTITLE5=My Man's An Undertaker
TTITLE6=Blue Memories
TTITLE7=Juneteenth Jamboree
TTITLE8=Back O Town Blues
TTITLE9=Someday You'll Want Me To Want You
TTITLE10=The Poker
TTITLE11=You Were Made For Me
TTITLE12=Darn That Dream
TTITLE13=Deep In a Dream
TTITLE14=New Speedway Boogie
EXTD=
EXTT0=
EXTT1=
EXTT2=
EXTT3=
EXTT4=
EXTT5=
EXTT6=
EXTT7=
EXTT8=
EXTT9=
EXTT10=
EXTT11=
EXTT12=
EXTT13=
EXTT14=
PLAYORDER=
